<svg xmlns="http://www.w3.org/2000/svg" width="146" height="70" fill="none"><path fill="#fff" d="M20 66.46c0-2 2.07-3.96 3.53-5.11l10.16-8.1c5.45-.6 11.15-1 16.64-1.4l.15 2.36c-4.42.35-8.85.69-14.15 1.25l-7.54 5.82c3.21-.43 6.38-.8 9.53-1.12l.28 2.18c-4.36.47-8.82 1-13.15 1.63-.8.77-1.27 1.55-1.27 2.3 0 .75.37 1.47 4.2 1.47 3.06 0 8.95-.25 15.11-2.6a4 4 0 0 1-.09-.87c0-2.4 1.71-4.17 4.08-4.89l.8.62a5.45 5.45 0 0 0-1.3 3.37c3.87-2.18 7.67-4.64 10.03-4.64l.91 2.24c-1.9 0-6.08 2.21-10.53 4.61.69 1.34 2.4 2.15 5.45 2.15 1.8 0 3.84-.21 5.61-.65v-.25c0-3.65 5.73-7.04 14.96-8.35l.62 2.28c-7.2 1.24-11.47 3.42-11.47 5.73 0 .88.88 1.25 2.93 1.25 2.05 0 5.08-.35 8.35-1.1.56-3.42 8.2-8.16 13.36-8.16 2.6 0 3.34 1.44 3.34 2.24 0 1.66-3.4 3.93-8.67 5.49l-3.77 1.12c.6.28 1.56.4 2.96.4 2.15 0 5.45-.4 9.16-1.43 2.15.75 5.27 1.44 8.88 1.44 2.1 0 3.62-.38 3.62-.88 0-1.18-9.5-2.3-9.5-4.98 0-2 4.45-3.4 9.5-3.4 1.9 0 3.49.06 5.42.53l-.25 2.34c-1.47-.26-3.74-.41-5.48-.41-2.75 0-5.14.62-5.14 1.3 0 1.25 8.79 2.34 9.47 4.59l1.96-.53c1.97.68 4.7 1.43 7.95 1.43 2.09 0 3.61-.37 3.61-.87 0-1.19-9.63-2.3-9.63-4.99 0-2 4.58-3.4 9.76-3.4 1.9 0 3.49.07 5.42.54l-.25 2.33a37.1 37.1 0 0 0-5.49-.4c-2.86 0-5.38.62-5.38 1.3 0 1.3 9.62 2.43 9.62 4.86 0 1.53-3.36 2.53-7.66 2.53-2.46 0-4.96-.6-8.04-1.62-1.77.5-3.55.94-5.27 1.24-1.21.25-2.65.38-4.24.38-2.74 0-5.57-.5-8.97-1.62-3.58 1-7.35 1.62-9.88 1.62-3.14 0-5.2-.4-6.04-1.4-3.46.9-6.95 1.4-9.82 1.4-2.5 0-4.3-.34-5.24-1.15a19.92 19.92 0 0 1-6.76 1.15c-3.83 0-6.5-.94-7.9-2.53l-5.4 2.9-1.21-1.53c-3.96.9-7.7 1.15-10.2 1.15-6.44 0-7.69-1.59-7.69-3.17h.02Zm57.56-.5 3.06-.93c5.45-1.66 7.95-3.43 7.95-4.21 0-.22-.25-.41-.7-.41-2.8 0-9.34 3.43-10.3 5.55ZM57.1 4.55c-9.78 5.6-21.5 13.62-30.24 20.19 9.66 7.65 29.9 12.45 56.75 12.45 26.86 0 50.13-4.2 50.13-9.42 0-1.27-1.45-2.61-3.64-3.52l-15.62-6.5c-4.74-2.01-8.02-5.17-8.02-7.9 0-4.87 11.85-9.3 25.89-9.85l4.8 6.92c-10.03.13-18.66 2.25-18.66 4.5 0 1.04 1.76 2.19 5.28 3.65l14.53 6.01c4.62 1.95 7.53 5.1 7.53 8.15 0 8.69-26.37 14.4-62.22 14.4-29.35 0-51.47-5.23-63.5-13.62A405.36 405.36 0 0 0 4.68 43.14L0 37.92A482.3 482.3 0 0 1 14.7 25.4c-3.16-3.58-4.86-7.53-4.86-11.79C9.84 7 14.77 1.95 21.33.01l6.62 2.37c-4.8 2.85-7.35 6.87-7.35 11.24a12 12 0 0 0 1.58 5.83A407.88 407.88 0 0 1 47.06 1.41a6.51 6.51 0 0 1 8.77 1.48l1.27 1.67Zm34.47 3c-15.3 0-27.46 6.37-27.46 16.16 0 3.16 1.34 6.5 3.59 8.87-6.93.12-11.85-4.8-11.85-11.8C55.85 8.88 70.67.01 88.17.01a53 53 0 0 1 8.15.66L101 8.51c-3.04-.66-6.2-.97-9.42-.97Z"/></svg>